ffmpeg started on 2016-11-22 at 23:05:11
Report written to "Output/NVENCh264/results/ffmpeg/crowd_run_2160p50medium2500k.log"
Command line:
Tools/ffmpeg/ffmpeg -benchmark -y -i Input/y4m/crowd_run_2160p50.y4m -c:v h264_nvenc -preset medium -b:v 2500k -an Output/NVENCh264/encoded/crowd_run_2160p50medium2500k.mkv
ffmpeg version N-82227-gdb23fde Copyright (c) 2000-2016 the FFmpeg developers
  built with gcc 5.4.0 (Ubuntu 5.4.0-6ubuntu1~16.04.2) 20160609
  configuration: --prefix=/home/jaroslav/ffmpeg_build --pkg-config-flags=--static --extra-cflags=-I/home/jaroslav/ffmpeg_build/include --extra-ldflags=-L/home/jaroslav/ffmpeg_build/lib --bindir=/home/jaroslav/bin --enable-gpl --enable-libass --enable-libfdk-aac --enable-libfreetype --enable-libmp3lame --enable-libopus --enable-libtheora --enable-libvorbis --enable-libvpx --enable-libx264 --enable-libx265 --enable-nvenc --enable-libmfx --enable-libxvid --enable-libgsm --enable-libopencore-amrnb --enable-version3 --enable-nonfree
  libavutil      55. 35.100 / 55. 35.100
  libavcodec     57. 66.101 / 57. 66.101
  libavformat    57. 57.100 / 57. 57.100
  libavdevice    57.  2.100 / 57.  2.100
  libavfilter     6. 66.100 /  6. 66.100
  libswscale      4.  3.100 /  4.  3.100
  libswresample   2.  4.100 /  2.  4.100
  libpostproc    54.  2.100 / 54.  2.100
Input #0, yuv4mpegpipe, from 'Input/y4m/crowd_run_2160p50.y4m':
  Duration: 00:00:10.00, start: 0.000000, bitrate: 4976642 kb/s
    Stream #0:0: Video: rawvideo (I420 / 0x30323449), yuv420p(progressive), 3840x2160, SAR 1:1 DAR 16:9, 50 fps, 50 tbr, 50 tbn, 50 tbc
Output #0, matroska, to 'Output/NVENCh264/encoded/crowd_run_2160p50medium2500k.mkv':
  Metadata:
    encoder         : Lavf57.57.100
    Stream #0:0: Video: h264 (h264_nvenc) (Main) (H264 / 0x34363248), yuv420p, 3840x2160 [SAR 1:1 DAR 16:9], q=-1--1, 2500 kb/s, 50 fps, 1k tbn, 50 tbc
    Metadata:
      encoder         : Lavc57.66.101 h264_nvenc
    Side data:
      cpb: bitrate max/min/avg: 0/0/2500000 buffer size: 5000000 vbv_delay: -1
Stream mapping:
  Stream #0:0 -> #0:0 (rawvideo (native) -> h264 (h264_nvenc))
Press [q] to stop, [?] for help
frame=    3 fps=0.0 q=0.0 size=       0kB time=00:00:00.00 bitrate=N/A speed=   0x    frame=   21 fps= 20 q=0.0 size=       0kB time=00:00:00.00 bitrate=N/A speed=   0x    frame=   39 fps= 25 q=49.0 size=       1kB time=00:00:00.16 bitrate=  36.4kbits/s speed=0.102x    frame=   57 fps= 27 q=49.0 size=       1kB time=00:00:00.52 bitrate=  11.3kbits/s speed=0.248x    frame=   75 fps= 29 q=49.0 size=       1kB time=00:00:00.88 bitrate=   6.7kbits/s speed=0.336x    frame=   93 fps= 30 q=49.0 size=       1kB time=00:00:01.24 bitrate=   4.7kbits/s speed=0.395x    frame=  111 fps= 30 q=49.0 size=       1kB time=00:00:01.60 bitrate=   3.7kbits/s speed=0.437x    frame=  129 fps= 31 q=49.0 size=       1kB time=00:00:01.96 bitrate=   3.0kbits/s speed=0.469x    frame=  146 fps= 31 q=49.0 size=       1kB time=00:00:02.30 bitrate=   2.5kbits/s speed=0.491x    frame=  161 fps= 23 q=49.0 size=       1kB time=00:00:02.60 bitrate=   2.3kbits/s speed=0.377x    frame=  162 fps= 13 q=49.0 size=       1kB time=00:00:02.62 bitrate=   2.2kbits/s speed=0.213x    frame=  179 fps= 14 q=49.0 size=       1kB time=00:00:02.96 bitrate=   2.0kbits/s speed=0.231x    frame=  196 fps= 15 q=49.0 size=       1kB time=00:00:03.30 bitrate=   1.8kbits/s speed=0.247x    frame=  213 fps= 15 q=49.0 size=       1kB time=00:00:03.64 bitrate=   1.6kbits/s speed=0.263x    frame=  231 fps= 16 q=49.0 size=       1kB time=00:00:04.00 bitrate=   1.5kbits/s speed=0.278x    frame=  249 fps= 17 q=49.0 size=       1kB time=00:00:04.36 bitrate=   1.3kbits/s speed=0.292x    frame=  266 fps= 17 q=49.0 size=       1kB time=00:00:04.70 bitrate=   1.2kbits/s speed=0.305x    frame=  283 fps= 18 q=49.0 size=    3170kB time=00:00:05.04 bitrate=5152.3kbits/s speed=0.317x    frame=  301 fps= 18 q=49.0 size=    3170kB time=00:00:05.40 bitrate=4808.8kbits/s speed=0.328x    frame=  319 fps= 19 q=49.0 size=    3170kB time=00:00:05.76 bitrate=4508.3kbits/s speed=0.34x    frame=  337 fps= 19 q=49.0 size=    3170kB time=00:00:06.12 bitrate=4243.2kbits/s speed=0.35x    frame=  355 fps= 20 q=49.0 size=    3170kB time=00:00:06.48 bitrate=4007.5kbits/s speed=0.36x    frame=  373 fps= 20 q=49.0 size=    3170kB time=00:00:06.84 bitrate=3796.6kbits/s speed=0.369x    frame=  391 fps= 21 q=49.0 size=    3170kB time=00:00:07.20 bitrate=3606.8kbits/s speed=0.378x    frame=  409 fps= 21 q=49.0 size=    3170kB time=00:00:07.56 bitrate=3435.1kbits/s speed=0.387x    frame=  427 fps= 21 q=49.0 size=    3170kB time=00:00:07.92 bitrate=3278.9kbits/s speed=0.395x    frame=  445 fps= 22 q=49.0 size=    3170kB time=00:00:08.28 bitrate=3136.4kbits/s speed=0.402x    frame=  463 fps= 22 q=49.0 size=    3170kB time=00:00:08.64 bitrate=3005.7kbits/s speed=0.41x    frame=  481 fps= 22 q=49.0 size=    3170kB time=00:00:09.00 bitrate=2885.5kbits/s speed=0.417x    frame=  499 fps= 23 q=49.0 size=    3170kB time=00:00:09.36 bitrate=2774.5kbits/s speed=0.423x    frame=  500 fps= 23 q=49.0 Lsize=    6558kB time=00:00:09.98 bitrate=5382.2kbits/s speed=0.45x    
video:6553kB audio:0kB subtitle:0kB other streams:0kB global headers:0kB muxing overhead: 0.064658%
bench: utime=1.088s
bench: maxrss=977340kB
